<svg id="Layer_1" data-name="Layer 1" xmlns="http://www.w3.org/2000/svg" viewBox="0 0 135 133.89"><defs><style>.cls-1{font-size:21.21px;fill:#fff;font-family:Poppins-Light, Poppins;font-weight:300;}</style></defs><title>Circle</title><text class="cls-1" transform="translate(77.58 17.54) rotate(18.32)">v</text><text class="cls-1" transform="translate(91.78 22.67) rotate(36.92)">o</text><text class="cls-1" transform="translate(105.07 33.33) rotate(56.84)">g</text><text class="cls-1" transform="translate(114.2 48.53) rotate(76.86)">u</text><text class="cls-1" transform="translate(117.44 65.08) rotate(96.05)">e</text><text class="cls-1" transform="translate(114.65 81.68) rotate(110.24)">.</text><text class="cls-1" transform="matrix(-0.55, 0.84, -0.84, -0.55, 111.94, 88.89)">s</text><text class="cls-1" transform="translate(103.47 100.6) rotate(137.95)">t</text><text class="cls-1" transform="translate(94.98 107.96) rotate(153.18)">y</text><text class="cls-1" transform="translate(80.99 114.07) rotate(167.09)">l</text><text class="cls-1" transform="translate(72.64 116.04) rotate(-178.32)">e</text><text class="cls-1" transform="translate(55.86 114.52) rotate(-164.19)">.</text><text class="cls-1" transform="translate(48.44 112.18) rotate(-153.36)">f</text><text class="cls-1" transform="matrix(-0.73, -0.68, 0.68, -0.73, 39.01, 107.46)">a</text><text class="cls-1" transform="translate(26.47 94.95) rotate(-116.66)">d</text><text class="cls-1" transform="translate(19.11 76.91) rotate(-99.99)">.</text><text class="cls-1" transform="matrix(0.02, -1, 1, 0.02, 17.96, 69.24)">r</text><text class="cls-1" transform="matrix(0.31, -0.95, 0.95, 0.31, 18.21, 57.91)">a</text><text class="cls-1" transform="translate(24.25 41.27) rotate(-51.62)">g</text><text class="cls-1" transform="matrix(0.85, -0.53, 0.53, 0.85, 35.78, 27.81)">e</text><text class="cls-1" transform="translate(50.6 19.79) rotate(-17.72)">.</text></svg>